<svg xmlns="http://www.w3.org/2000/svg"  viewBox="0 0 100 100" width="100px" height="100px"><path d="M 28.085938 16.054688 A 2.0002 2.0002 0 0 0 27.886719 16.056641 A 2.0002 2.0002 0 0 0 26.654297 16.574219 L 15.654297 26.574219 A 2.0002 2.0002 0 0 0 15.357422 29.193359 C 23.508964 40.948626 29.747675 47.45172 35.289062 52.058594 L 13.699219 70.535156 A 2.0002 2.0002 0 0 0 13.78125 73.638672 L 26.78125 83.638672 A 2.0002 2.0002 0 0 0 29.177734 83.669922 C 34.707802 79.638889 40.738247 74.933323 50.949219 63.117188 L 69.462891 85.333984 A 2.0002 2.0002 0 0 0 72.537109 85.333984 L 82.537109 73.333984 A 2.0002 2.0002 0 0 0 82.498047 70.728516 C 77.419315 64.983184 71.366379 59.067486 63.888672 52.927734 C 68.607866 48.094962 74.89648 41.567108 85.451172 30.429688 A 2.0002 2.0002 0 0 0 85.21875 27.46875 L 72.21875 17.46875 A 2.0002 2.0002 0 0 0 69.550781 17.675781 C 62.474253 25.117955 56.381759 32.176037 50.947266 38.980469 C 45.446071 32.413277 38.71792 25.195582 29.353516 16.582031 A 2.0002 2.0002 0 0 0 28.085938 16.054688 z M 27.951172 20.800781 C 34.644665 27.03272 40.077318 32.585372 44.587891 37.640625 L 43.105469 40.607422 A 1.0001161 1.0001161 0 1 0 44.894531 41.501953 L 46.015625 39.261719 C 47.223265 40.647594 48.37857 42.005422 49.451172 43.318359 A 2.0002 2.0002 0 0 0 52.572266 43.289062 C 57.937627 36.45549 64.160712 29.27862 71.240234 21.759766 L 77.167969 26.320312 L 75.539062 27.166016 A 1.0002331 1.0002331 0 1 0 76.460938 28.941406 L 78.917969 27.666016 L 81.013672 29.279297 C 79.717036 30.645834 78.883914 31.511044 77.685547 32.771484 L 74.195312 32.074219 A 1.0001 1.0001 0 0 0 73.998047 32.050781 A 1.0001 1.0001 0 0 0 73.804688 34.035156 L 76.052734 34.484375 C 74.831925 35.767002 73.635726 37.025973 72.523438 38.191406 A 1.0001 1.0001 0 0 0 72.234375 38.082031 L 68.101562 37.082031 A 1.0001 1.0001 0 0 0 67.804688 37.050781 A 1.0001 1.0001 0 0 0 67.630859 39.025391 L 70.960938 39.830078 C 70.609182 40.198133 70.13501 40.699234 69.794922 41.054688 L 65 41.054688 A 1.0001 1.0001 0 1 0 65 43.054688 L 67.884766 43.054688 C 67.097955 43.875278 66.668389 44.309281 65.951172 45.054688 L 62 45.054688 A 1.0001 1.0001 0 1 0 62 47.054688 L 64.017578 47.054688 C 63.70271 47.380554 63.376907 47.716906 63.078125 48.025391 L 60.316406 47.105469 A 1.0001 1.0001 0 0 0 59.921875 47.050781 A 1.0001 1.0001 0 0 0 59.683594 49.001953 L 61.539062 49.621094 C 60.968261 50.207783 60.073793 51.142484 59.572266 51.654297 A 2.0002 2.0002 0 0 0 59.751953 54.617188 C 67.362571 60.698487 73.210174 66.476524 78.320312 72.144531 L 71 80.929688 L 70.800781 80.689453 L 71.894531 78.501953 A 1.0001 1.0001 0 0 0 70.955078 77.042969 A 1.0001 1.0001 0 0 0 70.105469 77.607422 L 69.402344 79.013672 L 68.435547 77.851562 L 69.849609 75.582031 A 1.0001 1.0001 0 0 0 68.949219 74.042969 A 1.0001 1.0001 0 0 0 68.150391 74.525391 L 67.087891 76.234375 L 64.677734 73.341797 L 65.832031 71.609375 A 1.0001 1.0001 0 0 0 64.980469 70.042969 A 1.0001 1.0001 0 0 0 64.167969 70.5 L 63.341797 71.740234 L 62.455078 70.675781 L 63.832031 68.609375 A 1.0001 1.0001 0 0 0 62.980469 67.042969 A 1.0001 1.0001 0 0 0 62.167969 67.5 L 61.119141 69.072266 L 52.537109 58.773438 A 2.0002 2.0002 0 0 0 49.472656 58.761719 C 47.91975 60.597148 46.503213 62.209349 45.148438 63.71875 L 43.962891 62.388672 A 1.0001 1.0001 0 0 0 43.164062 62.044922 A 1.0001 1.0001 0 0 0 42.470703 63.71875 L 43.792969 65.203125 C 42.64666 66.451225 41.558856 67.602391 40.537109 68.644531 L 39.980469 65.857422 A 1.0001 1.0001 0 0 0 38.984375 65.041016 A 1.0001 1.0001 0 0 0 38.019531 66.25 L 38.839844 70.349609 C 38.431407 70.749537 38.033435 71.13129 37.642578 71.501953 L 36.970703 68.810547 A 1.0001 1.0001 0 0 0 35.9375 68.041016 A 1.0001 1.0001 0 0 0 35.029297 69.296875 L 35.96875 73.052734 C 35.737156 73.261968 35.507367 73.467929 35.28125 73.667969 L 34.341797 70.748047 A 1.0001 1.0001 0 0 0 33.359375 70.041016 A 1.0001 1.0001 0 0 0 32.4375 71.361328 L 33.638672 75.087891 C 31.624968 76.780155 29.782059 78.183653 27.974609 79.511719 L 27.111328 78.847656 L 28.554688 77.886719 A 1.0001 1.0001 0 0 0 27.980469 76.046875 A 1.0001 1.0001 0 0 0 27.445312 76.222656 L 25.4375 77.560547 L 24.566406 76.890625 L 26.447266 75.949219 A 1.0001 1.0001 0 0 0 26.003906 74.046875 A 1.0001 1.0001 0 0 0 25.552734 74.160156 L 22.804688 75.535156 L 22.3125 75.15625 L 23.707031 73.761719 A 1.0001 1.0001 0 0 0 22.980469 72.044922 A 1.0001 1.0001 0 0 0 22.292969 72.347656 L 20.714844 73.925781 L 18.173828 71.972656 L 39.671875 53.574219 A 2.0002 2.0002 0 0 0 39.599609 50.476562 C 38.478708 49.603297 37.316155 48.620715 36.121094 47.552734 L 38.242188 47.023438 A 1.0001 1.0001 0 0 0 38.025391 45.050781 A 1.0001 1.0001 0 0 0 37.757812 45.083984 L 34.371094 45.931641 C 33.178221 44.791892 31.95193 43.560815 30.65625 42.152344 L 32.554688 40.886719 A 1.0001 1.0001 0 0 0 31.980469 39.046875 A 1.0001 1.0001 0 0 0 31.445312 39.222656 L 29.316406 40.642578 C 28.838647 40.101678 28.361031 39.565294 27.867188 38.982422 L 30.925781 36.876953 A 1.0001 1.0001 0 0 0 30.322266 35.046875 A 1.0001 1.0001 0 0 0 29.791016 35.230469 L 26.591797 37.433594 C 26.018456 36.733769 25.436158 36.013632 24.839844 35.253906 L 27.447266 33.949219 A 1.0001 1.0001 0 0 0 27.003906 32.046875 A 1.0001 1.0001 0 0 0 26.552734 32.160156 L 23.59375 33.638672 C 22.33619 31.991071 21.045779 30.257715 19.677734 28.322266 L 27.951172 20.800781 z M 46.480469 45.066406 C 45.625469 45.104406 44.963953 45.828641 45.001953 46.681641 C 45.038953 47.534641 45.762234 48.198156 46.615234 48.160156 C 47.468234 48.122156 48.133703 47.399875 48.095703 46.546875 C 48.057703 45.693875 47.333469 45.028406 46.480469 45.066406 z M 52.673828 48.164062 C 51.820828 48.202062 51.157312 48.924344 51.195312 49.777344 C 51.233312 50.630344 51.955594 51.295813 52.808594 51.257812 C 53.661594 51.219813 54.324109 50.495578 54.287109 49.642578 C 54.249109 48.789578 53.526828 48.126062 52.673828 48.164062 z M 49.578125 53.960938 C 48.725125 53.998937 48.061609 54.721219 48.099609 55.574219 C 48.136609 56.427219 48.858891 57.089734 49.712891 57.052734 C 50.565891 57.014734 51.229406 56.292453 51.191406 55.439453 C 51.153406 54.586453 50.431125 53.922937 49.578125 53.960938 z"/></svg>